<?xml version="1.0" encoding="UTF-8"?>
<svg viewBox="0 0 64 64" xmlns="http://www.w3.org/2000/svg">
  <defs>
    <linearGradient id="globeGradient" x1="0%" y1="0%" x2="100%" y2="100%">
      <stop offset="0%" style="stop-color:#22d3ee;stop-opacity:1" />
      <stop offset="50%" style="stop-color:#06b6d4;stop-opacity:1" />
      <stop offset="100%" style="stop-color:#6366f1;stop-opacity:1" />
    </linearGradient>
  </defs>

  <!-- Globe circle - no background box -->
  <circle cx="32" cy="32" r="30" fill="url(#globeGradient)" opacity="0.95" />

  <!-- Latitude lines -->
  <ellipse cx="32" cy="32" rx="28" ry="9" fill="none" stroke="#0a0a0f" stroke-width="1" opacity="0.5" />
  <ellipse cx="32" cy="19" rx="22" ry="5.5" fill="none" stroke="#0a0a0f" stroke-width="0.8" opacity="0.35" />
  <ellipse cx="32" cy="45" rx="22" ry="5.5" fill="none" stroke="#0a0a0f" stroke-width="0.8" opacity="0.35" />

  <!-- Longitude lines -->
  <ellipse cx="32" cy="32" rx="9" ry="28" fill="none" stroke="#0a0a0f" stroke-width="1" opacity="0.5" />
  <ellipse cx="20" cy="32" rx="5.5" ry="22" fill="none" stroke="#0a0a0f" stroke-width="0.8" opacity="0.35" />
  <ellipse cx="44" cy="32" rx="5.5" ry="22" fill="none" stroke="#0a0a0f" stroke-width="0.8" opacity="0.35" />

  <!-- Simplified continents -->
  <path d="M 20 18 Q 17 24 17 32 Q 17 39 20 45 Q 23 41 23 35 Q 23 27 20 18" fill="#0a0a0f" opacity="0.45" />
  <path d="M 32 16 Q 35 21 36 28 Q 37 33 36 39 Q 35 44 32 47 Q 29 42 29 32 Q 29 23 32 16" fill="#0a0a0f" opacity="0.45" />
  <path d="M 43 20 Q 47 24 48 32 Q 47 39 44 44 Q 41 41 41 32 Q 41 25 43 20" fill="#0a0a0f" opacity="0.45" />

  <!-- Outer rim highlight -->
  <circle cx="32" cy="32" r="30" fill="none" stroke="#ffffff" stroke-width="0.8" opacity="0.25" />
</svg>
